<mxfile host="app.diagrams.net" modified="2024-06-02T14:29:16.860Z" agent="Mozilla/5.0 (Windows NT 10.0; Win64; x64) AppleWebKit/537.36 (KHTML, like Gecko) Chrome/124.0.0.0 Safari/537.36 OPR/110.0.0.0" etag="DpUt9XHQqTw9ydP4oOhf" version="24.4.13" type="device">
  <diagram name="Strona-1" id="Y1vDVqaoW1Vur17HT15z">
    <mxGraphModel dx="1620" dy="781" grid="1" gridSize="10" guides="1" tooltips="1" connect="1" arrows="1" fold="1" page="1" pageScale="1" pageWidth="827" pageHeight="1169" math="0" shadow="0">
      <root>
        <mxCell id="0" />
        <mxCell id="1" parent="0" />
        <mxCell id="dLKDjnFu_dXjmhoCG67y-23" value="Sklep online" style="rounded=0;whiteSpace=wrap;html=1;" vertex="1" parent="1">
          <mxGeometry x="290" y="750" width="210" height="120" as="geometry" />
        </mxCell>
        <mxCell id="dLKDjnFu_dXjmhoCG67y-26" value="" style="endArrow=none;html=1;rounded=0;exitX=1;exitY=0.5;exitDx=0;exitDy=0;entryX=0.5;entryY=0.5;entryDx=0;entryDy=0;entryPerimeter=0;" edge="1" parent="1" source="dLKDjnFu_dXjmhoCG67y-23" target="dLKDjnFu_dXjmhoCG67y-27">
          <mxGeometry width="50" height="50" relative="1" as="geometry">
            <mxPoint x="390" y="730" as="sourcePoint" />
            <mxPoint x="630" y="810" as="targetPoint" />
          </mxGeometry>
        </mxCell>
        <mxCell id="dLKDjnFu_dXjmhoCG67y-27" value="Koordynator partnerski&lt;div&gt;&lt;br&gt;&lt;/div&gt;" style="shape=umlActor;verticalLabelPosition=bottom;verticalAlign=top;html=1;outlineConnect=0;" vertex="1" parent="1">
          <mxGeometry x="647" y="780" width="30" height="60" as="geometry" />
        </mxCell>
        <mxCell id="dLKDjnFu_dXjmhoCG67y-28" value="" style="endArrow=block;endSize=16;endFill=0;html=1;rounded=0;exitX=0.5;exitY=0;exitDx=0;exitDy=0;exitPerimeter=0;entryX=0.5;entryY=0.5;entryDx=0;entryDy=0;entryPerimeter=0;" edge="1" parent="1" source="dLKDjnFu_dXjmhoCG67y-27" target="dLKDjnFu_dXjmhoCG67y-29">
          <mxGeometry width="160" relative="1" as="geometry">
            <mxPoint x="509" y="510" as="sourcePoint" />
            <mxPoint x="690" y="710" as="targetPoint" />
          </mxGeometry>
        </mxCell>
        <mxCell id="dLKDjnFu_dXjmhoCG67y-29" value="&lt;div&gt;Użytkownik&lt;/div&gt;" style="shape=umlActor;verticalLabelPosition=bottom;verticalAlign=top;html=1;outlineConnect=0;" vertex="1" parent="1">
          <mxGeometry x="730" y="700" width="30" height="60" as="geometry" />
        </mxCell>
        <mxCell id="dLKDjnFu_dXjmhoCG67y-31" value="Klient" style="shape=umlActor;verticalLabelPosition=bottom;verticalAlign=top;html=1;" vertex="1" parent="1">
          <mxGeometry x="120" y="750" width="30" height="60" as="geometry" />
        </mxCell>
        <mxCell id="dLKDjnFu_dXjmhoCG67y-33" value="" style="endArrow=none;html=1;rounded=0;exitX=0.5;exitY=0.5;exitDx=0;exitDy=0;entryX=0;entryY=0.25;entryDx=0;entryDy=0;exitPerimeter=0;" edge="1" parent="1" source="dLKDjnFu_dXjmhoCG67y-31" target="dLKDjnFu_dXjmhoCG67y-23">
          <mxGeometry width="50" height="50" relative="1" as="geometry">
            <mxPoint x="510" y="820" as="sourcePoint" />
            <mxPoint x="672" y="820" as="targetPoint" />
          </mxGeometry>
        </mxCell>
        <mxCell id="dLKDjnFu_dXjmhoCG67y-35" value="&lt;div&gt;Użytkownik&lt;/div&gt;" style="shape=umlActor;verticalLabelPosition=bottom;verticalAlign=top;html=1;outlineConnect=0;" vertex="1" parent="1">
          <mxGeometry x="70" y="600" width="30" height="60" as="geometry" />
        </mxCell>
        <mxCell id="dLKDjnFu_dXjmhoCG67y-36" value="" style="endArrow=block;endSize=16;endFill=0;html=1;rounded=0;exitX=0.5;exitY=0;exitDx=0;exitDy=0;exitPerimeter=0;entryX=0.5;entryY=0.5;entryDx=0;entryDy=0;entryPerimeter=0;" edge="1" parent="1" source="dLKDjnFu_dXjmhoCG67y-31" target="dLKDjnFu_dXjmhoCG67y-35">
          <mxGeometry width="160" relative="1" as="geometry">
            <mxPoint x="672" y="790" as="sourcePoint" />
            <mxPoint x="755" y="740" as="targetPoint" />
          </mxGeometry>
        </mxCell>
      </root>
    </mxGraphModel>
  </diagram>
</mxfile>
